<?xml version="1.0" encoding="utf-8"?>
<!-- Generator: Adobe Illustrator 22.0.1, SVG Export Plug-In . SVG Version: 6.00 Build 0)  -->
<svg version="1.1" id="Layer_1" xmlns="http://www.w3.org/2000/svg" xmlns:xlink="http://www.w3.org/1999/xlink" x="0px" y="0px"
	 viewBox="0 0 24 24" style="enable-background:new 0 0 24 24;" xml:space="preserve" width="24" height="24">
<path d="M5,15.1c0-0.4,0.3-0.7,0.7-0.7h3.6V8c0-0.4,0.3-0.7,0.7-0.7s0.7,0.3,0.7,0.7v7.1c0,0.4-0.3,0.7-0.7,0.7l0,0l0,0H5.7
	C5.3,15.8,5,15.5,5,15.1z M18.9,11.4c-3.5,0-6.3-2.8-6.3-6.3c0-0.3,0-0.6,0.1-0.9C11.8,4,10.9,3.9,10,3.9c-5.5,0-10,4.5-10,10
	s4.5,10,10,10s10-4.5,10-10c0-0.9-0.1-1.7-0.3-2.6C19.4,11.4,19.1,11.4,18.9,11.4z"/>
<path d="M18.9,0c-2.8,0-5.1,2.3-5.1,5.1s2.3,5.1,5.1,5.1S24,8,24,5.1S21.7,0,18.9,0z M18.9,8.6c-0.3,0-0.6-0.3-0.6-0.6V5.7h-2.2
	c-0.3,0-0.6-0.3-0.6-0.6s0.3-0.6,0.6-0.6h2.2v-2c0-0.3,0.3-0.6,0.6-0.6c0.3,0,0.6,0.3,0.6,0.6v2h2.2c0.3,0,0.6,0.3,0.6,0.6
	S22,5.7,21.7,5.7h-2.2V8C19.5,8.3,19.2,8.6,18.9,8.6z"/>
</svg>
